<svg width="1033" height="500" viewBox="0 0 1033 500" fill="none" xmlns="http://www.w3.org/2000/svg">
<g clip-path="url(#clip0_701_34)">
<rect width="1033" height="500" fill="black"/>
<rect opacity="0.5" x="422.414" y="243" width="132.514" height="132.514" transform="rotate(-45 422.414 243)" stroke="#673AB6" stroke-width="2"/>
<rect opacity="0.5" x="134.645" y="243" width="539.481" height="539.481" transform="rotate(-45 134.645 243)" stroke="#673AB6" stroke-width="2"/>
<rect opacity="0.5" x="-31.3553" y="243" width="774.24" height="774.24" transform="rotate(-45 -31.3553 243)" stroke="#673AB6" stroke-width="2"/>
<rect opacity="0.5" x="471.087" y="243.442" width="63.6791" height="63.6791" transform="rotate(-45 471.087 243.442)" stroke="#673AB6" stroke-width="2"/>
<path opacity="0.5" d="M516 365V422" stroke="#673AB6" stroke-width="2"/>
<path opacity="0.5" d="M647 243L833 243" stroke="#673AB6" stroke-width="2"/>
<path opacity="0.5" d="M202 243L381 243" stroke="#673AB6" stroke-width="2"/>
<path opacity="0.5" d="M516 64V121" stroke="#673AB6" stroke-width="2"/>
<path d="M493.695 207.813L499.307 200.664L541.632 225.147L535.846 231.002L493.695 207.813Z" fill="#673AB6"/>
<path d="M490.876 276.707L490.876 264.955L534.999 221.282L541.621 225.144L490.876 276.707Z" fill="#673AB6"/>
<path d="M490.308 195L499.23 200.581L499.23 232.543L490.308 232.543L490.308 195Z" fill="#673AB6"/>
<path d="M500.993 269.18L542.785 225.837L549.202 229.724L504.629 276.786L493.592 276.786L500.993 269.18Z" fill="white"/>
<path d="M503.281 267.855L538.31 268.428L543.746 276.766H503.281V267.855Z" fill="white"/>
<path d="M463.683 343.1C465.163 343.1 466.456 343.387 467.563 343.96C468.683 344.52 469.543 345.333 470.143 346.4C470.756 347.453 471.063 348.687 471.063 350.1C471.063 351.513 470.756 352.74 470.143 353.78C469.543 354.82 468.683 355.62 467.563 356.18C466.456 356.727 465.163 357 463.683 357H459.143V343.1H463.683ZM463.683 355.14C465.309 355.14 466.556 354.7 467.423 353.82C468.289 352.94 468.723 351.7 468.723 350.1C468.723 348.487 468.289 347.227 467.423 346.32C466.556 345.413 465.309 344.96 463.683 344.96H461.423V355.14H463.683ZM472.562 351.44C472.562 350.333 472.789 349.353 473.242 348.5C473.709 347.647 474.336 346.987 475.122 346.52C475.922 346.04 476.802 345.8 477.762 345.8C478.629 345.8 479.382 345.973 480.022 346.32C480.676 346.653 481.196 347.073 481.582 347.58V345.98H483.882V357H481.582V355.36C481.196 355.88 480.669 356.313 480.002 356.66C479.336 357.007 478.576 357.18 477.722 357.18C476.776 357.18 475.909 356.94 475.122 356.46C474.336 355.967 473.709 355.287 473.242 354.42C472.789 353.54 472.562 352.547 472.562 351.44ZM481.582 351.48C481.582 350.72 481.422 350.06 481.102 349.5C480.796 348.94 480.389 348.513 479.882 348.22C479.376 347.927 478.829 347.78 478.242 347.78C477.656 347.78 477.109 347.927 476.602 348.22C476.096 348.5 475.682 348.92 475.362 349.48C475.056 350.027 474.902 350.68 474.902 351.44C474.902 352.2 475.056 352.867 475.362 353.44C475.682 354.013 476.096 354.453 476.602 354.76C477.122 355.053 477.669 355.2 478.242 355.2C478.829 355.2 479.376 355.053 479.882 354.76C480.389 354.467 480.796 354.04 481.102 353.48C481.422 352.907 481.582 352.24 481.582 351.48ZM492.437 345.8C493.304 345.8 494.077 345.98 494.757 346.34C495.45 346.7 495.99 347.233 496.377 347.94C496.764 348.647 496.957 349.5 496.957 350.5V357H494.697V350.84C494.697 349.853 494.45 349.1 493.957 348.58C493.464 348.047 492.79 347.78 491.937 347.78C491.084 347.78 490.404 348.047 489.897 348.58C489.404 349.1 489.157 349.853 489.157 350.84V357H486.877V345.98H489.157V347.24C489.53 346.787 490.004 346.433 490.577 346.18C491.164 345.927 491.784 345.8 492.437 345.8ZM501.025 344.52C500.612 344.52 500.265 344.38 499.985 344.1C499.705 343.82 499.565 343.473 499.565 343.06C499.565 342.647 499.705 342.3 499.985 342.02C500.265 341.74 500.612 341.6 501.025 341.6C501.425 341.6 501.765 341.74 502.045 342.02C502.325 342.3 502.465 342.647 502.465 343.06C502.465 343.473 502.325 343.82 502.045 344.1C501.765 344.38 501.425 344.52 501.025 344.52ZM502.145 345.98V357H499.865V345.98H502.145ZM507.419 342.2V357H505.139V342.2H507.419ZM515.192 357.18C514.152 357.18 513.212 356.947 512.372 356.48C511.532 356 510.872 355.333 510.392 354.48C509.912 353.613 509.672 352.613 509.672 351.48C509.672 350.36 509.919 349.367 510.412 348.5C510.905 347.633 511.579 346.967 512.432 346.5C513.285 346.033 514.239 345.8 515.292 345.8C516.345 345.8 517.299 346.033 518.152 346.5C519.005 346.967 519.679 347.633 520.172 348.5C520.665 349.367 520.912 350.36 520.912 351.48C520.912 352.6 520.659 353.593 520.152 354.46C519.645 355.327 518.952 356 518.072 356.48C517.205 356.947 516.245 357.18 515.192 357.18ZM515.192 355.2C515.779 355.2 516.325 355.06 516.832 354.78C517.352 354.5 517.772 354.08 518.092 353.52C518.412 352.96 518.572 352.28 518.572 351.48C518.572 350.68 518.419 350.007 518.112 349.46C517.805 348.9 517.399 348.48 516.892 348.2C516.385 347.92 515.839 347.78 515.252 347.78C514.665 347.78 514.119 347.92 513.612 348.2C513.119 348.48 512.725 348.9 512.432 349.46C512.139 350.007 511.992 350.68 511.992 351.48C511.992 352.667 512.292 353.587 512.892 354.24C513.505 354.88 514.272 355.2 515.192 355.2Z" fill="#673AB6"/>
<path d="M530.641 355.16H535.341V357H528.361V343.1H530.641V355.16ZM538.408 344.52C537.995 344.52 537.648 344.38 537.368 344.1C537.088 343.82 536.948 343.473 536.948 343.06C536.948 342.647 537.088 342.3 537.368 342.02C537.648 341.74 537.995 341.6 538.408 341.6C538.808 341.6 539.148 341.74 539.428 342.02C539.708 342.3 539.848 342.647 539.848 343.06C539.848 343.473 539.708 343.82 539.428 344.1C539.148 344.38 538.808 344.52 538.408 344.52ZM539.528 345.98V357H537.248V345.98H539.528ZM555.861 345.8C556.728 345.8 557.501 345.98 558.181 346.34C558.875 346.7 559.415 347.233 559.801 347.94C560.201 348.647 560.401 349.5 560.401 350.5V357H558.141V350.84C558.141 349.853 557.895 349.1 557.401 348.58C556.908 348.047 556.235 347.78 555.381 347.78C554.528 347.78 553.848 348.047 553.341 348.58C552.848 349.1 552.601 349.853 552.601 350.84V357H550.341V350.84C550.341 349.853 550.095 349.1 549.601 348.58C549.108 348.047 548.435 347.78 547.581 347.78C546.728 347.78 546.048 348.047 545.541 348.58C545.048 349.1 544.801 349.853 544.801 350.84V357H542.521V345.98H544.801V347.24C545.175 346.787 545.648 346.433 546.221 346.18C546.795 345.927 547.408 345.8 548.061 345.8C548.941 345.8 549.728 345.987 550.421 346.36C551.115 346.733 551.648 347.273 552.021 347.98C552.355 347.313 552.875 346.787 553.581 346.4C554.288 346 555.048 345.8 555.861 345.8ZM562.543 351.44C562.543 350.333 562.769 349.353 563.223 348.5C563.689 347.647 564.316 346.987 565.103 346.52C565.903 346.04 566.783 345.8 567.743 345.8C568.609 345.8 569.363 345.973 570.003 346.32C570.656 346.653 571.176 347.073 571.563 347.58V345.98H573.863V357H571.563V355.36C571.176 355.88 570.649 356.313 569.983 356.66C569.316 357.007 568.556 357.18 567.703 357.18C566.756 357.18 565.889 356.94 565.103 356.46C564.316 355.967 563.689 355.287 563.223 354.42C562.769 353.54 562.543 352.547 562.543 351.44ZM571.563 351.48C571.563 350.72 571.403 350.06 571.083 349.5C570.776 348.94 570.369 348.513 569.863 348.22C569.356 347.927 568.809 347.78 568.223 347.78C567.636 347.78 567.089 347.927 566.583 348.22C566.076 348.5 565.663 348.92 565.343 349.48C565.036 350.027 564.883 350.68 564.883 351.44C564.883 352.2 565.036 352.867 565.343 353.44C565.663 354.013 566.076 354.453 566.583 354.76C567.103 355.053 567.649 355.2 568.223 355.2C568.809 355.2 569.356 355.053 569.863 354.76C570.369 354.467 570.776 354.04 571.083 353.48C571.403 352.907 571.563 352.24 571.563 351.48Z" fill="white"/>
<path d="M440.674 382.88V384.368H435.954V387.648H439.634V389.136H435.954V394H434.13V382.88H440.674ZM444.188 386.464C444.455 386.016 444.807 385.669 445.244 385.424C445.692 385.168 446.22 385.04 446.828 385.04V386.928H446.364C445.649 386.928 445.105 387.109 444.732 387.472C444.369 387.835 444.188 388.464 444.188 389.36V394H442.364V385.184H444.188V386.464ZM452.329 394.144C451.497 394.144 450.745 393.957 450.073 393.584C449.401 393.2 448.873 392.667 448.489 391.984C448.105 391.291 447.913 390.491 447.913 389.584C447.913 388.688 448.11 387.893 448.505 387.2C448.899 386.507 449.438 385.973 450.121 385.6C450.803 385.227 451.566 385.04 452.409 385.04C453.251 385.04 454.014 385.227 454.697 385.6C455.379 385.973 455.918 386.507 456.313 387.2C456.707 387.893 456.905 388.688 456.905 389.584C456.905 390.48 456.702 391.275 456.297 391.968C455.891 392.661 455.337 393.2 454.633 393.584C453.939 393.957 453.171 394.144 452.329 394.144ZM452.329 392.56C452.798 392.56 453.235 392.448 453.641 392.224C454.057 392 454.393 391.664 454.649 391.216C454.905 390.768 455.033 390.224 455.033 389.584C455.033 388.944 454.91 388.405 454.665 387.968C454.419 387.52 454.094 387.184 453.689 386.96C453.283 386.736 452.846 386.624 452.377 386.624C451.907 386.624 451.47 386.736 451.065 386.96C450.67 387.184 450.355 387.52 450.121 387.968C449.886 388.405 449.769 388.944 449.769 389.584C449.769 390.533 450.009 391.269 450.489 391.792C450.979 392.304 451.593 392.56 452.329 392.56ZM463.156 385.04C463.849 385.04 464.468 385.184 465.012 385.472C465.566 385.76 465.998 386.187 466.308 386.752C466.617 387.317 466.772 388 466.772 388.8V394H464.964V389.072C464.964 388.283 464.766 387.68 464.372 387.264C463.977 386.837 463.438 386.624 462.756 386.624C462.073 386.624 461.529 386.837 461.124 387.264C460.729 387.68 460.532 388.283 460.532 389.072V394H458.708V385.184H460.532V386.192C460.83 385.829 461.209 385.547 461.668 385.344C462.137 385.141 462.633 385.04 463.156 385.04ZM471.226 386.672V391.552C471.226 391.883 471.301 392.123 471.45 392.272C471.61 392.411 471.877 392.48 472.25 392.48H473.37V394H471.93C471.109 394 470.48 393.808 470.042 393.424C469.605 393.04 469.386 392.416 469.386 391.552V386.672H468.346V385.184H469.386V382.992H471.226V385.184H473.37V386.672H471.226ZM481.82 387.44V388.976H475.244V387.44H481.82ZM492.491 389.376C492.491 389.707 492.47 390.005 492.427 390.272H485.691C485.744 390.976 486.006 391.541 486.475 391.968C486.944 392.395 487.52 392.608 488.203 392.608C489.184 392.608 489.878 392.197 490.283 391.376H492.251C491.984 392.187 491.499 392.853 490.795 393.376C490.102 393.888 489.238 394.144 488.203 394.144C487.36 394.144 486.603 393.957 485.931 393.584C485.27 393.2 484.747 392.667 484.363 391.984C483.99 391.291 483.803 390.491 483.803 389.584C483.803 388.677 483.984 387.883 484.347 387.2C484.72 386.507 485.238 385.973 485.899 385.6C486.571 385.227 487.339 385.04 488.203 385.04C489.035 385.04 489.776 385.221 490.427 385.584C491.078 385.947 491.584 386.459 491.947 387.12C492.31 387.771 492.491 388.523 492.491 389.376ZM490.587 388.8C490.576 388.128 490.336 387.589 489.867 387.184C489.398 386.779 488.816 386.576 488.123 386.576C487.494 386.576 486.955 386.779 486.507 387.184C486.059 387.579 485.792 388.117 485.707 388.8H490.587ZM498.734 385.04C499.427 385.04 500.046 385.184 500.59 385.472C501.145 385.76 501.577 386.187 501.886 386.752C502.195 387.317 502.35 388 502.35 388.8V394H500.542V389.072C500.542 388.283 500.345 387.68 499.95 387.264C499.555 386.837 499.017 386.624 498.334 386.624C497.651 386.624 497.107 386.837 496.702 387.264C496.307 387.68 496.11 388.283 496.11 389.072V394H494.286V385.184H496.11V386.192C496.409 385.829 496.787 385.547 497.246 385.344C497.715 385.141 498.211 385.04 498.734 385.04ZM504.069 389.552C504.069 388.667 504.25 387.883 504.613 387.2C504.986 386.517 505.487 385.989 506.117 385.616C506.757 385.232 507.466 385.04 508.245 385.04C508.821 385.04 509.386 385.168 509.941 385.424C510.506 385.669 510.954 386 511.285 386.416V382.16H513.125V394H511.285V392.672C510.986 393.099 510.57 393.451 510.037 393.728C509.514 394.005 508.911 394.144 508.229 394.144C507.461 394.144 506.757 393.952 506.117 393.568C505.487 393.173 504.986 392.629 504.613 391.936C504.25 391.232 504.069 390.437 504.069 389.552ZM511.285 389.584C511.285 388.976 511.157 388.448 510.901 388C510.655 387.552 510.33 387.211 509.925 386.976C509.519 386.741 509.082 386.624 508.613 386.624C508.143 386.624 507.706 386.741 507.301 386.976C506.895 387.2 506.565 387.536 506.309 387.984C506.063 388.421 505.941 388.944 505.941 389.552C505.941 390.16 506.063 390.693 506.309 391.152C506.565 391.611 506.895 391.963 507.301 392.208C507.717 392.443 508.154 392.56 508.613 392.56C509.082 392.56 509.519 392.443 509.925 392.208C510.33 391.973 510.655 391.632 510.901 391.184C511.157 390.725 511.285 390.192 511.285 389.584ZM523.309 382.88C524.493 382.88 525.527 383.109 526.413 383.568C527.309 384.016 527.997 384.667 528.477 385.52C528.967 386.363 529.213 387.349 529.213 388.48C529.213 389.611 528.967 390.592 528.477 391.424C527.997 392.256 527.309 392.896 526.413 393.344C525.527 393.781 524.493 394 523.309 394H519.677V382.88H523.309ZM523.309 392.512C524.61 392.512 525.607 392.16 526.301 391.456C526.994 390.752 527.341 389.76 527.341 388.48C527.341 387.189 526.994 386.181 526.301 385.456C525.607 384.731 524.61 384.368 523.309 384.368H521.501V392.512H523.309ZM539.1 389.376C539.1 389.707 539.079 390.005 539.036 390.272H532.3C532.354 390.976 532.615 391.541 533.084 391.968C533.554 392.395 534.13 392.608 534.812 392.608C535.794 392.608 536.487 392.197 536.892 391.376H538.86C538.594 392.187 538.108 392.853 537.404 393.376C536.711 393.888 535.847 394.144 534.812 394.144C533.97 394.144 533.212 393.957 532.54 393.584C531.879 393.2 531.356 392.667 530.972 391.984C530.599 391.291 530.412 390.491 530.412 389.584C530.412 388.677 530.594 387.883 530.956 387.2C531.33 386.507 531.847 385.973 532.508 385.6C533.18 385.227 533.948 385.04 534.812 385.04C535.644 385.04 536.386 385.221 537.036 385.584C537.687 385.947 538.194 386.459 538.556 387.12C538.919 387.771 539.1 388.523 539.1 389.376ZM537.196 388.8C537.186 388.128 536.946 387.589 536.476 387.184C536.007 386.779 535.426 386.576 534.732 386.576C534.103 386.576 533.564 386.779 533.116 387.184C532.668 387.579 532.402 388.117 532.316 388.8H537.196ZM544.303 392.368L546.799 385.184H548.735L545.375 394H543.199L539.855 385.184H541.807L544.303 392.368ZM558.194 389.376C558.194 389.707 558.173 390.005 558.13 390.272H551.394C551.447 390.976 551.709 391.541 552.178 391.968C552.647 392.395 553.223 392.608 553.906 392.608C554.887 392.608 555.581 392.197 555.986 391.376H557.954C557.687 392.187 557.202 392.853 556.498 393.376C555.805 393.888 554.941 394.144 553.906 394.144C553.063 394.144 552.306 393.957 551.634 393.584C550.973 393.2 550.45 392.667 550.066 391.984C549.693 391.291 549.506 390.491 549.506 389.584C549.506 388.677 549.687 387.883 550.05 387.2C550.423 386.507 550.941 385.973 551.602 385.6C552.274 385.227 553.042 385.04 553.906 385.04C554.738 385.04 555.479 385.221 556.13 385.584C556.781 385.947 557.287 386.459 557.65 387.12C558.013 387.771 558.194 388.523 558.194 389.376ZM556.29 388.8C556.279 388.128 556.039 387.589 555.57 387.184C555.101 386.779 554.519 386.576 553.826 386.576C553.197 386.576 552.658 386.779 552.21 387.184C551.762 387.579 551.495 388.117 551.41 388.8H556.29ZM561.813 382.16V394H559.989V382.16H561.813ZM568.032 394.144C567.2 394.144 566.448 393.957 565.776 393.584C565.104 393.2 564.576 392.667 564.192 391.984C563.808 391.291 563.616 390.491 563.616 389.584C563.616 388.688 563.813 387.893 564.208 387.2C564.602 386.507 565.141 385.973 565.824 385.6C566.506 385.227 567.269 385.04 568.112 385.04C568.954 385.04 569.717 385.227 570.4 385.6C571.082 385.973 571.621 386.507 572.016 387.2C572.41 387.893 572.608 388.688 572.608 389.584C572.608 390.48 572.405 391.275 572 391.968C571.594 392.661 571.04 393.2 570.336 393.584C569.642 393.957 568.874 394.144 568.032 394.144ZM568.032 392.56C568.501 392.56 568.938 392.448 569.344 392.224C569.76 392 570.096 391.664 570.352 391.216C570.608 390.768 570.736 390.224 570.736 389.584C570.736 388.944 570.613 388.405 570.368 387.968C570.122 387.52 569.797 387.184 569.392 386.96C568.986 386.736 568.549 386.624 568.08 386.624C567.61 386.624 567.173 386.736 566.768 386.96C566.373 387.184 566.058 387.52 565.824 387.968C565.589 388.405 565.472 388.944 565.472 389.584C565.472 390.533 565.712 391.269 566.192 391.792C566.682 392.304 567.296 392.56 568.032 392.56ZM576.235 386.48C576.544 386.075 576.966 385.733 577.499 385.456C578.032 385.179 578.635 385.04 579.307 385.04C580.075 385.04 580.774 385.232 581.403 385.616C582.043 385.989 582.544 386.517 582.907 387.2C583.27 387.883 583.451 388.667 583.451 389.552C583.451 390.437 583.27 391.232 582.907 391.936C582.544 392.629 582.043 393.173 581.403 393.568C580.774 393.952 580.075 394.144 579.307 394.144C578.635 394.144 578.038 394.011 577.515 393.744C576.992 393.467 576.566 393.125 576.235 392.72V398.192H574.411V385.184H576.235V386.48ZM581.595 389.552C581.595 388.944 581.467 388.421 581.211 387.984C580.966 387.536 580.635 387.2 580.219 386.976C579.814 386.741 579.376 386.624 578.907 386.624C578.448 386.624 578.011 386.741 577.595 386.976C577.19 387.211 576.859 387.552 576.603 388C576.358 388.448 576.235 388.976 576.235 389.584C576.235 390.192 576.358 390.725 576.603 391.184C576.859 391.632 577.19 391.973 577.595 392.208C578.011 392.443 578.448 392.56 578.907 392.56C579.376 392.56 579.814 392.443 580.219 392.208C580.635 391.963 580.966 391.611 581.211 391.152C581.467 390.693 581.595 390.16 581.595 389.552ZM593.335 389.376C593.335 389.707 593.313 390.005 593.271 390.272H586.535C586.588 390.976 586.849 391.541 587.319 391.968C587.788 392.395 588.364 392.608 589.047 392.608C590.028 392.608 590.721 392.197 591.127 391.376H593.095C592.828 392.187 592.343 392.853 591.639 393.376C590.945 393.888 590.081 394.144 589.047 394.144C588.204 394.144 587.447 393.957 586.775 393.584C586.113 393.2 585.591 392.667 585.207 391.984C584.833 391.291 584.647 390.491 584.647 389.584C584.647 388.677 584.828 387.883 585.191 387.2C585.564 386.507 586.081 385.973 586.743 385.6C587.415 385.227 588.183 385.04 589.047 385.04C589.879 385.04 590.62 385.221 591.271 385.584C591.921 385.947 592.428 386.459 592.791 387.12C593.153 387.771 593.335 388.523 593.335 389.376ZM591.431 388.8C591.42 388.128 591.18 387.589 590.711 387.184C590.241 386.779 589.66 386.576 588.967 386.576C588.337 386.576 587.799 386.779 587.351 387.184C586.903 387.579 586.636 388.117 586.551 388.8H591.431ZM596.954 386.464C597.22 386.016 597.572 385.669 598.01 385.424C598.458 385.168 598.986 385.04 599.594 385.04V386.928H599.13C598.415 386.928 597.871 387.109 597.498 387.472C597.135 387.835 596.954 388.464 596.954 389.36V394H595.13V385.184H596.954V386.464Z" fill="white"/>
<g clip-path="url(#clip1_701_34)">
<path d="M178.931 118.645H183.069L180.999 113.737L178.931 118.645ZM180.999 106L169.68 109.982L171.406 124.753L181 130L190.596 124.758L192.32 109.984L180.999 106.001V106ZM188.063 124.31H185.425L184.003 120.807H177.996L176.574 124.311H173.934L181 108.65L188.063 124.31Z" fill="#673AB6"/>
</g>
<path d="M43.5 231H64.5L62.59 252.563L53.977 255L45.413 252.562L43.5 231ZM50.531 240.75L50.299 238.032L60.358 238.035L60.588 235.413L47.412 235.41L48.11 243.42H57.236L56.91 246.846L54 247.65L51.045 246.84L50.857 244.73H48.248L48.578 248.901L54 250.351L59.379 248.908L60.123 240.751H50.531V240.75Z" fill="#673AB6"/>
<g clip-path="url(#clip2_701_34)">
<path d="M989.546 241.93L979.067 231.452C978.776 231.163 978.383 231 977.973 231C977.563 231 977.17 231.163 976.879 231.452L974.708 233.627L977.468 236.387C977.794 236.277 978.144 236.26 978.478 236.339C978.813 236.417 979.119 236.588 979.361 236.832C979.604 237.076 979.773 237.383 979.849 237.718C979.926 238.053 979.907 238.403 979.795 238.728L982.453 241.388C982.846 241.251 983.275 241.252 983.667 241.39C984.06 241.529 984.394 241.797 984.615 242.15C984.836 242.503 984.93 242.92 984.883 243.334C984.835 243.748 984.648 244.133 984.353 244.427C984.182 244.598 983.98 244.733 983.757 244.826C983.534 244.918 983.294 244.966 983.053 244.966C982.812 244.966 982.572 244.918 982.349 244.826C982.126 244.733 981.924 244.598 981.753 244.427C981.497 244.171 981.323 243.845 981.251 243.49C981.179 243.135 981.213 242.767 981.349 242.431L978.86 239.955V246.48C979.036 246.566 979.202 246.683 979.348 246.828C979.69 247.174 979.883 247.641 979.883 248.128C979.883 248.615 979.69 249.082 979.348 249.428C979.177 249.599 978.973 249.735 978.75 249.828C978.526 249.921 978.286 249.969 978.043 249.969C977.801 249.969 977.561 249.921 977.337 249.828C977.114 249.735 976.91 249.599 976.739 249.428C976.568 249.258 976.432 249.055 976.34 248.832C976.247 248.609 976.2 248.37 976.2 248.129C976.2 247.888 976.247 247.649 976.34 247.426C976.432 247.203 976.568 247 976.739 246.83C976.921 246.65 977.126 246.514 977.344 246.424V239.835C977.12 239.743 976.915 239.608 976.744 239.437C976.572 239.266 976.436 239.062 976.343 238.838C976.25 238.614 976.203 238.373 976.204 238.131C976.205 237.888 976.254 237.648 976.348 237.425L973.636 234.7L966.45 241.881C965.85 242.486 965.85 243.465 966.45 244.07L976.93 254.547C977.073 254.691 977.244 254.805 977.431 254.882C977.619 254.96 977.82 255 978.023 255C978.226 255 978.427 254.96 978.615 254.882C978.802 254.805 978.973 254.691 979.116 254.547L989.546 244.117C989.69 243.974 989.804 243.803 989.882 243.615C989.96 243.428 990 243.227 990 243.023C990 242.82 989.96 242.619 989.882 242.431C989.804 242.244 989.69 242.073 989.546 241.93Z" fill="#673AB6"/>
</g>
<g clip-path="url(#clip3_701_34)">
<path d="M931.257 190.132L935.816 187.5C935.872 187.468 935.936 187.451 936 187.451C936.065 187.451 936.128 187.468 936.184 187.5L940.743 190.132C940.799 190.164 940.846 190.211 940.878 190.267C940.91 190.323 940.927 190.387 940.927 190.452V195.715C940.927 195.78 940.91 195.843 940.878 195.899C940.845 195.955 940.799 196.002 940.743 196.034L936.184 198.666C936.128 198.698 936.065 198.715 936 198.715C935.936 198.715 935.872 198.698 935.816 198.666L931.257 196.034C931.201 196.001 931.155 195.955 931.122 195.899C931.09 195.842 931.073 195.779 931.073 195.714V190.452C931.073 190.387 931.09 190.324 931.122 190.267C931.155 190.211 931.201 190.165 931.257 190.132ZM947.852 192.53L942.406 183.055C942.208 182.712 941.842 182.459 941.446 182.459H930.555C930.159 182.459 929.793 182.712 929.595 183.055L924.149 192.509C924.052 192.679 924.001 192.872 924.001 193.067C924.001 193.263 924.052 193.456 924.149 193.626L929.596 203.024C929.793 203.366 930.159 203.541 930.555 203.541H941.448C941.843 203.541 942.208 203.371 942.407 203.029L947.853 193.616C947.95 193.451 948.001 193.264 948.001 193.073C948.001 192.882 947.95 192.694 947.853 192.53H947.852ZM943.343 197.086C943.341 197.155 943.321 197.223 943.286 197.282C943.25 197.341 943.199 197.39 943.139 197.424L936.2 201.426C936.14 201.46 936.073 201.478 936.004 201.478C935.935 201.478 935.868 201.46 935.808 201.426L928.865 197.424C928.805 197.39 928.754 197.341 928.718 197.282C928.682 197.223 928.662 197.155 928.66 197.086V189.08C928.66 188.94 928.743 188.811 928.864 188.742L935.8 184.74C935.92 184.67 936.072 184.67 936.192 184.74L943.135 188.743C943.196 188.777 943.247 188.825 943.283 188.885C943.319 188.944 943.339 189.012 943.341 189.081L943.343 197.086Z" fill="#673AB6"/>
</g>
<path d="M85.5 280H106.5L104.59 301.563L95.977 304L87.412 301.562L85.5 280ZM102.59 284.413L89.41 284.41L89.623 287.032L99.748 287.034L99.493 289.75H92.853L93.093 292.323H99.275L98.909 295.846L95.999 296.65L93.043 295.84L92.855 293.73H90.245L90.535 297.585L96 299.288L101.373 297.758L102.59 284.414V284.413Z" fill="#673AB6"/>
<path d="M86.125 181C85.502 181 85 181.502 85 182.125V203.875C85 204.498 85.502 205 86.125 205H107.875C108.498 205 109 204.498 109 203.875V182.125C109 181.502 108.498 181 107.875 181H86.125ZM103.488 190.75C104.1 190.75 104.642 190.787 105.115 190.861C105.561 190.928 105.999 191.042 106.421 191.201V193.659C106.218 193.519 106.003 193.398 105.778 193.298C105.546 193.194 105.306 193.107 105.061 193.038C104.597 192.909 104.117 192.841 103.635 192.838C103.335 192.838 103.062 192.866 102.816 192.924C102.597 192.971 102.386 193.053 102.193 193.166C102.023 193.27 101.893 193.395 101.8 193.54C101.706 193.686 101.658 193.856 101.66 194.03C101.66 194.226 101.713 194.403 101.816 194.559C101.92 194.715 102.068 194.863 102.259 195.003C102.45 195.143 102.682 195.279 102.955 195.413C103.228 195.548 103.537 195.687 103.881 195.829C104.351 196.026 104.773 196.236 105.147 196.457C105.521 196.679 105.842 196.93 106.11 197.21C106.378 197.489 106.582 197.808 106.724 198.167C106.866 198.526 106.938 198.943 106.938 199.42C106.938 200.077 106.813 200.63 106.565 201.076C106.323 201.516 105.975 201.889 105.553 202.161C105.098 202.449 104.594 202.651 104.066 202.757C103.5 202.877 102.903 202.937 102.276 202.937C101.659 202.94 101.043 202.885 100.436 202.773C99.9109 202.682 99.4017 202.516 98.924 202.28V199.65C99.8278 200.419 100.974 200.844 102.161 200.85C102.494 200.85 102.785 200.82 103.033 200.76C103.282 200.7 103.489 200.616 103.656 200.51C103.822 200.402 103.946 200.276 104.029 200.13C104.121 199.96 104.162 199.768 104.149 199.575C104.136 199.382 104.069 199.197 103.955 199.041C103.806 198.844 103.625 198.675 103.418 198.541C103.162 198.371 102.892 198.223 102.611 198.097C102.278 197.945 101.943 197.8 101.604 197.661C100.686 197.278 100.002 196.809 99.551 196.256C99.101 195.703 98.875 195.034 98.875 194.251C98.875 193.637 98.998 193.11 99.244 192.669C99.49 192.228 99.824 191.865 100.248 191.58C100.696 191.284 101.194 191.071 101.718 190.951C102.298 190.814 102.892 190.747 103.488 190.75ZM88.375 190.938H97.938V193.104H94.506V202.75H91.789V193.104H88.375V190.938Z" fill="#673AB6"/>
<path d="M885.415 141.549L882 144.712L884.242 146.65L882.547 148.483L893.723 164.392H893.837C891.212 155.006 891.287 154.964 889.391 148.272L888.935 148.535C888.687 148.678 888.484 148.561 888.484 148.275V145.084C887.98 143.321 887.586 141.958 887.47 141.549H885.415ZM900.53 141.549C900.414 141.959 900.02 143.321 899.516 145.084V148.275C899.516 148.561 899.313 148.678 899.066 148.535L898.609 148.271C896.712 154.964 896.788 155.006 894.163 164.391C894.146 164.461 894.223 164.481 894.277 164.391L905.453 148.484L903.757 146.65L906 144.712L902.585 141.549H900.53ZM889.034 142.299C888.916 142.306 888.834 142.404 888.834 142.57V147.697C888.834 147.939 889.006 148.037 889.214 147.917L892.282 146.145C892.227 146.084 892.197 146.005 892.196 145.923V144.287C892.196 144.22 892.217 144.158 892.252 144.105L889.215 142.35C889.161 142.316 889.099 142.298 889.035 142.299H889.034ZM898.973 142.299C898.909 142.298 898.847 142.317 898.793 142.351L895.755 144.104C895.792 144.158 895.812 144.222 895.812 144.287V145.923C895.811 146.005 895.78 146.085 895.724 146.146L898.792 147.916C899.002 148.038 899.172 147.939 899.172 147.698V142.57C899.172 142.404 899.092 142.306 898.973 142.3V142.299ZM892.623 144.162C892.522 144.162 892.44 144.218 892.44 144.287V145.923C892.44 145.992 892.522 146.048 892.623 146.048H895.384C895.485 146.048 895.568 145.992 895.568 145.923V144.287C895.568 144.217 895.485 144.162 895.384 144.162H892.623ZM893.917 147.804C893.808 147.804 893.7 147.825 893.599 147.867C893.498 147.908 893.407 147.97 893.33 148.047C893.253 148.124 893.192 148.215 893.15 148.316C893.108 148.417 893.087 148.525 893.087 148.634C893.087 148.743 893.109 148.85 893.15 148.951C893.192 149.052 893.253 149.143 893.331 149.22C893.408 149.297 893.499 149.358 893.6 149.399C893.7 149.441 893.808 149.462 893.917 149.462C894.137 149.462 894.348 149.374 894.503 149.219C894.659 149.064 894.746 148.853 894.746 148.633C894.746 148.524 894.725 148.416 894.683 148.315C894.641 148.215 894.58 148.123 894.503 148.046C894.426 147.969 894.334 147.908 894.234 147.867C894.133 147.825 894.025 147.804 893.916 147.804H893.917ZM893.907 152.734C893.689 152.736 893.48 152.825 893.327 152.98C893.173 153.135 893.087 153.345 893.087 153.563C893.087 153.672 893.108 153.78 893.15 153.88C893.192 153.981 893.253 154.072 893.33 154.149C893.407 154.226 893.499 154.287 893.599 154.329C893.7 154.371 893.808 154.392 893.917 154.392C894.026 154.392 894.134 154.37 894.234 154.328C894.335 154.287 894.426 154.225 894.503 154.148C894.58 154.071 894.641 153.98 894.682 153.879C894.724 153.779 894.745 153.671 894.745 153.562C894.745 153.342 894.657 153.132 894.502 152.976C894.346 152.821 894.136 152.734 893.916 152.734C893.913 152.734 893.91 152.734 893.907 152.734ZM893.917 157.664C893.808 157.664 893.7 157.685 893.6 157.727C893.499 157.768 893.408 157.829 893.331 157.906C893.253 157.983 893.192 158.074 893.15 158.175C893.109 158.275 893.087 158.383 893.087 158.492C893.087 158.601 893.108 158.709 893.15 158.81C893.192 158.91 893.253 159.002 893.33 159.079C893.407 159.156 893.498 159.217 893.599 159.259C893.7 159.301 893.808 159.322 893.917 159.322C894.026 159.322 894.134 159.3 894.234 159.259C894.335 159.217 894.427 159.156 894.504 159.079C894.581 159.002 894.642 158.91 894.683 158.809C894.725 158.709 894.746 158.601 894.746 158.492C894.746 158.383 894.725 158.275 894.683 158.174C894.641 158.074 894.58 157.982 894.503 157.905C894.426 157.828 894.334 157.767 894.234 157.726C894.133 157.684 894.025 157.663 893.916 157.663L893.917 157.664Z" fill="#673AB6"/>
<path d="M855 106C861.627 106 867 111.373 867 118C867 124.627 861.627 130 855 130C848.373 130 843 124.627 843 118C843 111.373 848.373 106 855 106ZM852.615 121.998C852.79 122.643 852.771 123.246 852.591 123.79L852.526 123.97C852.502 124.031 852.474 124.09 852.448 124.146C852.308 124.436 852.122 124.706 851.893 124.956C851.195 125.715 850.221 126.003 849.803 125.761C849.353 125.499 849.577 124.426 850.387 123.571C851.258 122.653 852.507 122.062 852.507 122.062V122.059L852.615 121.998ZM862.526 111.137C861.984 109.004 858.449 108.303 855.104 109.492C853.115 110.199 850.96 111.31 849.411 112.759C847.568 114.48 847.275 115.98 847.396 116.607C847.823 118.818 850.853 120.264 852.099 121.337V121.343C851.732 121.523 849.043 122.872 848.413 124.268C847.738 125.738 848.518 126.789 849.028 126.923C850.603 127.359 852.223 126.563 853.093 125.274C853.933 124.013 853.859 122.393 853.497 121.598C853.993 121.463 854.577 121.403 855.327 121.494C857.428 121.734 857.848 123.054 857.757 123.594C857.667 124.133 857.234 124.448 857.083 124.538C856.933 124.629 856.888 124.658 856.902 124.719C856.917 124.809 856.993 124.809 857.112 124.794C857.277 124.764 858.208 124.344 858.253 123.323C858.298 122.033 857.067 120.594 854.878 120.623C853.978 120.639 853.407 120.714 853.003 120.879C852.976 120.837 852.94 120.801 852.898 120.774C851.548 119.319 849.043 118.299 849.148 116.364C849.178 115.659 849.433 113.8 853.948 111.55C857.653 109.704 860.609 110.215 861.119 111.34C861.852 112.944 859.543 115.93 855.688 116.364C854.218 116.529 853.453 115.96 853.257 115.749C853.048 115.524 853.018 115.509 852.943 115.555C852.823 115.615 852.898 115.81 852.943 115.93C853.063 116.23 853.528 116.755 854.339 117.025C855.043 117.25 856.769 117.384 858.839 116.575C861.163 115.676 862.978 113.17 862.453 111.07L862.526 111.137Z" fill="#673AB6"/>
<g clip-path="url(#clip4_701_34)">
<path d="M131.402 143.343C129.178 144.327 127.787 145.926 127.002 147.09C126.15 148.358 125.818 149.409 125.818 149.418C125.816 149.454 125.823 149.401 125.818 149.437C125.572 150.137 125.345 151.235 125.345 151.244C125.08 152.588 125.203 153.837 125.203 153.856L125.232 154.102C125.258 153.762 125.302 153.425 125.364 153.09C125.383 152.957 125.734 151.074 127.058 149.579C127.2 149.361 128.733 147.346 131.553 147.346C132.159 147.346 132.793 147.44 133.427 147.629H133.446C133.484 147.639 134.316 147.942 134.619 148.093C134.903 148.235 135.405 148.453 135.414 148.453H135.434C138.149 149.778 140.496 150.203 140.515 150.213C141.187 150.327 141.793 150.383 142.332 150.383C143.411 150.383 144.187 150.147 144.594 149.693C144.831 149.433 144.901 149.134 144.887 148.879C144.906 147.894 144.102 146.835 143.42 146.125C142.949 145.629 142.433 145.179 141.878 144.781C139.834 143.267 137.648 142.501 135.358 142.501C133.011 142.51 131.421 143.333 131.402 143.343ZM138.821 146.002C139.105 146.002 139.332 146.229 139.332 146.512C139.332 146.579 139.319 146.646 139.294 146.708C139.268 146.77 139.231 146.827 139.183 146.874C139.136 146.922 139.079 146.96 139.017 146.985C138.955 147.011 138.888 147.024 138.821 147.024C138.754 147.024 138.687 147.011 138.625 146.985C138.563 146.96 138.507 146.922 138.459 146.875C138.412 146.827 138.374 146.771 138.348 146.709C138.323 146.647 138.31 146.58 138.31 146.513C138.31 146.229 138.537 146.002 138.821 146.002ZM132.216 144.062C132.291 144.062 132.339 144.081 132.358 144.081L135.585 145.084L135.462 145.339L133.919 144.857C133.371 144.687 132.799 144.506 132.263 144.337C132.253 144.337 132.235 144.327 132.216 144.327C132.196 144.327 132.168 144.327 132.149 144.337C131.856 144.412 131.052 144.696 130.815 145.122C130.783 145.179 130.764 145.242 130.757 145.307C130.751 145.372 130.757 145.438 130.777 145.5C130.777 145.51 130.947 146.04 131.373 146.588L133.513 146.484L134.941 146.418L134.799 146.711L131.25 146.881C130.72 146.238 130.512 145.595 130.512 145.595C130.181 144.554 132.083 144.07 132.083 144.07C132.128 144.069 132.173 144.064 132.216 144.06V144.062ZM143.439 159.809C145.616 158.863 146.543 157.225 146.543 157.225C148.578 154.453 147.887 151.528 147.887 151.528C146.591 154.348 145.407 155.124 145.407 155.124C148.597 150.27 145.427 147.336 145.427 147.336C146.723 150.1 145 153.468 145 153.468C143.552 156.516 141.498 157.604 141.498 157.604C143.788 158.03 145.473 156.487 145.473 156.487C142.189 160.036 138.631 159.866 138.631 159.866C140.126 161.541 142.369 161.399 142.369 161.399C139.435 162.089 136.681 161.115 134.419 159.232C133.994 158.882 133.587 158.502 133.209 158.096C133.065 157.946 132.929 157.786 132.792 157.632C132.745 159.383 134.571 161.011 134.571 161.011C132.281 160.064 131.231 158.011 131.231 158.011C131.231 158.011 129.688 155.38 130.805 152.38C131.912 149.418 135.224 148.754 135.309 148.735C135.039 148.61 134.767 148.488 134.495 148.368C134.202 148.226 133.35 147.913 133.35 147.913C132.767 147.736 132.161 147.644 131.552 147.639C128.76 147.639 127.275 149.749 127.275 149.749C125.959 151.226 125.647 153.137 125.647 153.137C125.277 154.964 125.675 156.885 125.675 156.885C125.675 156.885 125.713 157.036 125.723 157.102C126.026 157.822 126.413 158.532 126.868 159.203C129.328 162.875 133.322 164.143 133.322 164.143C139.236 166.149 143.277 163.197 143.277 163.197C146.997 160.642 147.744 157.689 147.744 157.689C144.734 160.027 143.438 159.809 143.438 159.809H143.439ZM125.307 155.948C125.144 155.364 125.024 154.769 124.947 154.168C124.937 154.07 124.922 153.961 124.91 153.866C124.91 153.866 124.777 152.579 125.061 151.169C125.061 151.169 125.071 151.131 125.081 151.074C125.117 150.871 125.174 150.667 125.213 150.497C125.298 150.127 125.421 149.683 125.543 149.323C125.543 149.323 126.85 145.036 131.269 143.078C131.269 143.078 132.793 142.273 135.092 142.216C134.936 142.056 134.765 141.91 134.582 141.781C133.502 141.061 131.894 140.825 130.919 141.838C130.626 142.141 130.379 142.472 130.105 142.775C129.793 143.115 129.415 143.399 128.979 143.56C128.601 143.702 128.222 143.674 127.834 143.74C127.437 143.806 127.03 143.948 126.708 144.204C126.358 144.488 126.216 144.866 126.178 145.301C126.14 145.642 126.15 145.992 126.131 146.333C126.083 147.336 125.761 147.62 125.042 148.178C124.739 148.405 124.484 148.708 124.295 149.03C123.727 150.033 124.635 151.074 124.683 152.087C124.693 152.295 124.673 152.503 124.598 152.702C124.522 152.919 124.37 153.062 124.248 153.242C124.077 153.478 123.963 153.762 124.011 154.055C124.058 154.348 124.21 154.623 124.351 154.878C124.626 155.333 124.967 155.74 125.326 156.128C125.338 156.144 125.364 156.168 125.38 156.18L125.307 155.948Z" fill="#673AB6"/>
</g>
<g clip-path="url(#clip5_701_34)">
<path d="M935.987 294.138L932.855 299.061L927.662 290.634L927.65 299.456H924V284.544H927.691L932.938 293.377L932.943 289.379L935.987 294.138ZM936.588 288.377C936.612 288.329 936.588 284.593 936.596 284.544H932.946C932.948 284.603 932.941 288.32 932.943 288.377H936.588ZM942.222 292.511C941.796 292.503 941.378 292.627 941.025 292.866C940.673 293.105 940.403 293.448 940.253 293.847C940.501 293.476 940.869 293.2 941.295 293.066C941.721 292.931 942.18 292.946 942.596 293.108C942.992 293.269 943.513 293.53 943.926 293.391C943.732 293.119 943.477 292.898 943.18 292.745C942.884 292.592 942.556 292.512 942.222 292.511ZM945.612 293.572C945.237 293.442 944.812 293.295 944.503 292.891C944.443 292.811 944.387 292.721 944.327 292.626C944.193 292.379 944.012 292.161 943.794 291.984C943.5 291.768 943.114 291.662 942.614 291.662C942.123 291.662 941.642 291.808 941.234 292.082C940.825 292.355 940.507 292.744 940.32 293.198C940.557 292.867 940.878 292.605 941.248 292.437C941.619 292.269 942.027 292.201 942.433 292.24C942.838 292.28 943.226 292.424 943.557 292.661C943.889 292.897 944.152 293.216 944.322 293.586C944.406 293.725 944.534 293.832 944.684 293.892C944.835 293.953 945.001 293.962 945.158 293.92C945.651 293.815 945.618 294.28 946.361 294.438V294.305C946.358 293.859 946.115 293.755 945.611 293.572H945.612ZM947.636 294.838C947.745 294.772 947.834 294.678 947.895 294.566C947.956 294.454 947.987 294.327 947.983 294.2C947.973 291.243 945.573 288.713 942.613 288.713C941.723 288.712 940.847 288.933 940.064 289.355C939.281 289.777 938.615 290.387 938.126 291.131C938.116 291.105 936.604 288.741 936.588 288.713H932.943L936.406 294.136L933.027 299.456H936.567L938.107 297.09L939.675 299.456H943.216L940.006 294.404C939.953 294.306 939.924 294.196 939.922 294.084C939.922 293.731 939.991 293.381 940.126 293.054C940.262 292.728 940.46 292.431 940.71 292.181C940.959 291.931 941.256 291.733 941.582 291.598C941.909 291.463 942.259 291.393 942.612 291.393H942.613C944.101 291.393 944.349 292.283 944.67 292.701C945.304 293.527 946.57 293.165 946.57 294.242C946.572 294.365 946.607 294.486 946.67 294.592C946.734 294.698 946.824 294.786 946.932 294.846C947.04 294.906 947.161 294.937 947.285 294.936C947.409 294.934 947.53 294.901 947.636 294.838ZM947.986 294.971C947.813 295.343 947.426 295.309 947.231 295.61C947.055 295.881 947.345 296.022 947.345 296.022C947.345 296.022 947.682 296.178 947.883 295.711C947.987 295.48 948.023 295.223 947.986 294.971Z" fill="#673AB6"/>
</g>
<path d="M124 319H148V343H124V319ZM146.034 337.276C145.859 336.181 145.146 335.261 143.031 334.403C142.295 334.058 141.477 333.818 141.234 333.263C141.143 332.933 141.129 332.753 141.188 332.558C141.338 331.912 142.103 331.718 142.703 331.898C143.093 332.018 143.453 332.318 143.679 332.798C144.713 332.122 144.713 332.122 145.434 331.673C145.164 331.253 145.03 331.072 144.848 330.893C144.218 330.188 143.379 329.828 142.014 329.859L141.309 329.948C140.633 330.113 139.989 330.473 139.599 330.953C138.459 332.244 138.788 334.494 140.168 335.424C141.533 336.444 143.529 336.668 143.784 337.629C144.024 338.799 142.914 339.174 141.818 339.039C141.007 338.859 140.558 338.453 140.063 337.703L138.233 338.754C138.443 339.234 138.683 339.443 139.043 339.863C140.783 341.619 145.133 341.529 145.914 338.859C145.943 338.769 146.154 338.154 145.988 337.209L146.034 337.276ZM137.051 330.031H134.803C134.803 331.969 134.794 333.895 134.794 335.836C134.794 337.068 134.857 338.199 134.656 338.547C134.326 339.236 133.476 339.148 133.09 339.027C132.694 338.831 132.493 338.561 132.26 338.172C132.197 338.067 132.15 337.976 132.133 337.976L130.308 339.101C130.613 339.731 131.058 340.273 131.632 340.618C132.487 341.128 133.636 341.293 134.839 341.023C135.622 340.797 136.297 340.332 136.65 339.612C137.16 338.682 137.052 337.542 137.047 336.266C137.059 334.212 137.047 332.157 137.047 330.087L137.051 330.031Z" fill="#673AB6"/>
<g clip-path="url(#clip6_701_34)">
<path d="M865.251 376.82C865.25 376.132 865.021 375.463 864.6 374.919C864.179 374.374 863.589 373.984 862.923 373.81L865.911 365H851.104L854.1 373.838C853.454 374.027 852.885 374.42 852.481 374.958C852.076 375.497 851.857 376.152 851.856 376.826C851.858 377.323 851.977 377.812 852.206 378.253C852.434 378.694 852.764 379.074 853.169 379.362C852.85 379.812 852.487 380.228 852.085 380.606C851.346 381.31 850.481 381.869 849.535 382.253C848.701 381.69 848.34 380.697 848.666 379.807C849.376 379.587 849.983 379.12 850.378 378.49C850.773 377.861 850.93 377.111 850.82 376.377C850.71 375.642 850.34 374.971 849.778 374.485C849.217 373.999 848.499 373.73 847.756 373.727C846.931 373.728 846.14 374.056 845.556 374.64C844.973 375.224 844.644 376.015 844.643 376.84C844.643 377.688 844.99 378.466 845.546 379.022C845.498 379.119 845.449 379.217 845.4 379.321C844.935 380.28 844.407 381.364 844.205 382.58C843.802 385.012 844.462 386.964 846.054 388.069C846.916 388.677 847.945 389.002 848.999 389C850.826 389 852.681 388.083 854.474 387.193C855.753 386.561 857.073 385.901 858.372 385.581C858.852 385.463 859.352 385.394 859.88 385.317C860.95 385.164 862.055 385.005 863.048 384.427C863.615 384.102 864.105 383.657 864.481 383.123C864.858 382.589 865.114 381.979 865.23 381.336C865.404 380.342 865.23 379.342 864.786 378.466C865.084 377.986 865.251 377.424 865.251 376.819V376.82ZM863.896 376.82C863.896 377.785 863.111 378.57 862.146 378.57C861.783 378.569 861.429 378.455 861.133 378.244C860.837 378.033 860.614 377.735 860.495 377.392C860.376 377.049 860.366 376.677 860.468 376.328C860.569 375.979 860.777 375.67 861.061 375.444L861.068 375.437C861.124 375.395 861.186 375.353 861.248 375.312C861.248 375.312 861.256 375.312 861.256 375.305C861.284 375.291 861.311 375.27 861.339 375.255C861.346 375.255 861.353 375.249 861.36 375.249C861.388 375.235 861.423 375.221 861.457 375.207C861.492 375.193 861.527 375.18 861.555 375.166C861.562 375.166 861.568 375.159 861.575 375.159C861.603 375.152 861.631 375.138 861.659 375.131C861.666 375.131 861.679 375.124 861.687 375.124C861.721 375.117 861.749 375.11 861.784 375.104H861.791L861.895 375.082C861.902 375.082 861.915 375.082 861.923 375.075C861.951 375.075 861.978 375.068 862.006 375.068H862.041C862.076 375.068 862.111 375.061 862.152 375.061H862.242C862.27 375.061 862.292 375.061 862.319 375.068H862.333C862.388 375.075 862.444 375.082 862.5 375.096C862.895 375.181 863.249 375.398 863.502 375.711C863.756 376.025 863.895 376.416 863.896 376.819V376.82ZM853.043 366.39H863.973L861.464 373.79C861.36 373.81 861.256 373.845 861.152 373.88L858.512 368.495L855.864 373.845C855.76 373.811 855.648 373.79 855.537 373.769L853.043 366.389V366.39ZM858.011 376.215C857.884 375.574 857.555 374.989 857.073 374.547L858.511 371.643L859.963 374.61C859.533 375.04 859.22 375.59 859.095 376.215H858.01H858.011ZM854.53 375.117C854.564 375.11 854.592 375.103 854.627 375.097H854.647C854.676 375.089 854.703 375.089 854.731 375.082H854.759C854.787 375.082 854.808 375.075 854.835 375.075H855.106C855.134 375.075 855.155 375.082 855.176 375.082C855.19 375.082 855.196 375.082 855.211 375.089C855.238 375.096 855.259 375.096 855.287 375.103C855.294 375.103 855.301 375.103 855.315 375.11L855.412 375.13H855.419C855.447 375.138 855.475 375.145 855.502 375.159C855.509 375.159 855.516 375.166 855.53 375.166C855.551 375.173 855.579 375.18 855.6 375.193C855.607 375.193 855.614 375.2 855.62 375.2C855.648 375.214 855.676 375.221 855.704 375.235H855.711C855.743 375.247 855.774 375.264 855.801 375.284H855.808C855.836 375.298 855.864 375.318 855.892 375.332C855.899 375.332 855.899 375.339 855.905 375.339C855.933 375.353 855.955 375.374 855.982 375.388L855.989 375.395C856.072 375.457 856.149 375.527 856.225 375.596L856.232 375.603C856.542 375.929 856.714 376.362 856.712 376.812C856.697 377.266 856.506 377.697 856.179 378.012C855.852 378.328 855.416 378.505 854.961 378.505C854.507 378.505 854.07 378.328 853.744 378.012C853.417 377.697 853.226 377.266 853.21 376.812C853.209 376.423 853.339 376.044 853.578 375.737C853.817 375.43 854.153 375.211 854.53 375.117ZM847.692 375.068C848.658 375.068 849.443 375.854 849.443 376.819C849.443 377.784 848.658 378.57 847.693 378.57C846.728 378.57 845.941 377.785 845.941 376.82C845.941 375.855 846.727 375.068 847.692 375.068ZM863.855 381.093C863.776 381.538 863.6 381.959 863.34 382.328C863.079 382.697 862.74 383.003 862.347 383.226C861.589 383.664 860.658 383.803 859.678 383.942C859.127 384.013 858.58 384.11 858.038 384.233C856.593 384.588 855.204 385.283 853.856 385.95C852.132 386.804 850.506 387.61 848.999 387.61C848.227 387.615 847.472 387.374 846.845 386.922C845.316 385.866 845.392 383.886 845.573 382.802C845.74 381.787 846.205 380.836 846.65 379.925C846.678 379.87 846.699 379.821 846.727 379.765C846.879 379.821 847.039 379.863 847.206 379.891C846.942 381.364 847.692 382.885 849.152 383.636L849.416 383.775L849.7 383.671C850.916 383.24 852.042 382.538 853.036 381.6C853.585 381.088 854.07 380.512 854.481 379.884C854.641 379.911 854.801 379.918 854.961 379.918C855.649 379.916 856.317 379.687 856.861 379.266C857.405 378.845 857.795 378.256 857.969 377.591H859.136C859.31 378.257 859.699 378.848 860.244 379.269C860.789 379.69 861.458 379.918 862.146 379.918C862.722 379.918 863.256 379.758 863.716 379.488C863.896 380.008 863.952 380.551 863.855 381.093Z" fill="#673AB6"/>
</g>
<path d="M520.672 453.707L520.553 454.326C520.37 455.499 520.436 455.835 520.94 456.27L521.426 456.672L520.922 458.917C520.622 460.257 520.253 461.379 520.018 461.748C519.817 462.067 519.583 462.535 519.532 462.787C519.448 463.088 519.163 463.39 518.728 463.658C518.343 463.876 517.588 464.462 517.053 464.932C516.625 465.317 516.331 465.553 516.171 465.654L515.648 466.068C515.514 466.267 515.413 466.487 515.349 466.718C515.313 466.888 515.333 467 515.387 467.083C515.439 467.162 515.529 467.217 515.653 467.252C515.799 467.286 515.95 467.298 516.1 467.288C516.438 467.265 516.774 467.206 517.1 467.111C517.211 467.081 517.298 467.052 517.374 467.027C517.491 466.883 517.762 466.611 518.242 466.137C519.515 464.882 520.001 464.195 519.499 464.38C519.314 464.446 519.398 464.278 519.716 463.943C520.387 463.289 520.772 462.301 521.576 459.202C522.213 456.756 522.213 456.721 522.681 456.721C522.902 456.721 523.524 456.759 523.524 456.759V453.707H522.096H520.672ZM526.751 458.718C526.649 458.718 526.481 458.87 526.382 459.038C526.198 459.338 526.415 459.522 529.179 461.248C530.821 462.288 532.145 463.175 532.112 463.243C532.078 463.292 530.737 464.164 529.13 465.17C526.214 466.978 526.198 466.995 526.466 467.364C526.801 467.8 526.466 467.95 530.251 465.588L533 463.829V462.505L529.933 460.611C528.275 459.573 526.834 458.735 526.751 458.718ZM501.283 458.903C501.199 458.903 499.758 459.758 498.1 460.779L495 462.673V463.997L498.083 465.924C499.793 466.978 501.234 467.85 501.3 467.85C501.367 467.85 501.501 467.698 501.636 467.515C501.837 467.197 501.667 467.062 498.836 465.27C496.14 463.577 495.855 463.343 496.124 463.159C496.292 463.042 497.565 462.253 498.939 461.4C502.073 459.473 501.905 459.606 501.653 459.204C501.553 459.038 501.384 458.887 501.284 458.903H501.283ZM515.032 458.939C514.57 458.936 513.576 459.641 510.599 462.071C510.471 462.377 510.46 462.587 510.518 462.724C510.556 462.817 510.626 462.882 510.723 462.929C510.818 462.977 510.941 463.005 511.077 463.017C511.348 463.04 511.668 462.998 511.926 462.947L512.1 462.907C512.16 462.827 512.238 462.763 512.328 462.72C512.512 462.619 513.283 461.916 514.054 461.162C515.411 459.788 515.729 459.167 515.176 458.966C515.131 458.948 515.083 458.939 515.034 458.939H515.032ZM518.509 459.894C518.102 459.905 517.369 460.377 516.114 461.379C515.484 461.891 515.085 462.166 514.871 462.223L514.041 462.879C513.729 463.449 513.683 463.802 513.766 463.997C513.786 464.045 513.816 464.088 513.854 464.125C513.891 464.161 513.936 464.19 513.984 464.209C514.105 464.257 514.234 464.281 514.364 464.28C514.675 464.277 514.984 464.231 515.283 464.145C515.438 464.104 515.592 464.055 515.743 464L515.789 463.981L515.873 463.936C516.031 463.732 516.396 463.347 516.852 462.904C518.292 461.514 519.029 460.526 518.878 460.157C518.81 459.978 518.693 459.888 518.509 459.894ZM514.671 461.604C514.554 461.617 514.291 461.82 513.818 462.234C513.134 462.839 512.388 463.188 512.13 463.032C512.07 463.046 512.01 463.059 511.95 463.07C511.687 463.123 511.359 463.165 511.066 463.142C510.928 463.133 510.793 463.099 510.667 463.042C510.549 462.988 510.454 462.892 510.401 462.773C510.343 462.63 510.343 462.453 510.409 462.226L509.38 463.072L507.051 464.999V468.123L514.682 462.111C514.681 462.045 514.689 461.979 514.708 461.916C514.766 461.704 514.763 461.596 514.671 461.606V461.604ZM517.955 462.616C517.84 462.616 517.646 462.779 517.338 463.107C516.918 463.555 516.258 463.989 515.908 464.077L515.854 464.106C515.797 464.13 515.739 464.152 515.68 464.172C515.585 464.204 515.461 464.242 515.319 464.28C515.034 464.358 514.679 464.429 514.363 464.421C514.213 464.421 514.065 464.392 513.927 464.335C513.797 464.282 513.692 464.18 513.636 464.05C513.544 463.83 513.58 463.522 513.782 463.083L507.049 468.386V470.294H510.007L516.28 465.366C516.443 465.186 516.688 464.939 517.019 464.63C517.906 463.808 518.107 463.525 518.107 463.105C518.107 462.779 518.071 462.614 517.955 462.614V462.616ZM519.448 465.703L518.912 466.239C518.611 466.524 518.074 466.875 517.707 467.026L517.634 467.057L517.629 467.065L517.613 467.081C517.599 467.092 517.593 467.094 517.582 467.098C517.435 467.154 517.286 467.203 517.135 467.246C516.8 467.343 516.454 467.404 516.106 467.428C515.941 467.438 515.776 467.424 515.615 467.385C515.476 467.354 515.353 467.273 515.27 467.157C515.194 467.04 515.172 466.883 515.214 466.69C515.248 466.552 515.299 466.419 515.365 466.294L510.303 470.294H517.035L517.84 469.372C518.945 468.083 519.448 467.162 519.448 466.373V465.703Z" fill="#673AB6"/>
<path d="M183.602 377.005C183.602 377.696 183.327 378.36 182.838 378.849C182.349 379.338 181.686 379.613 180.994 379.613C180.302 379.613 179.639 379.338 179.15 378.849C178.66 378.36 178.385 377.696 178.385 377.005C178.385 376.313 178.66 375.65 179.149 375.16C179.638 374.671 180.301 374.396 180.993 374.396C181.685 374.396 182.348 374.671 182.838 375.16C183.327 375.649 183.602 376.313 183.602 377.005V377.005ZM186.691 364.533C185.121 364.533 183.066 365.653 180.988 367.592C178.912 365.663 176.856 364.556 175.287 364.556C174.808 364.556 174.373 364.665 173.997 364.881C172.392 365.806 172.033 368.689 172.861 372.306C169.31 373.403 167 375.157 167 377.005C167 378.86 169.322 380.618 172.884 381.706C172.062 385.338 172.428 388.226 174.036 389.15C174.409 389.368 174.841 389.47 175.322 389.47C176.891 389.47 178.947 388.35 181.024 386.409C183.101 388.339 185.157 389.446 186.726 389.446C187.204 389.446 187.639 389.341 188.016 389.125C189.619 388.201 189.98 385.318 189.151 381.699C192.69 380.612 195 378.855 195 377.005C195 375.15 192.678 373.391 189.117 372.301C189.938 368.672 189.571 365.782 187.964 364.857C187.575 364.639 187.136 364.527 186.69 364.533H186.691ZM186.685 365.805V365.812C186.948 365.812 187.159 365.863 187.336 365.96C188.113 366.405 188.45 368.101 188.188 370.281C188.125 370.818 188.022 371.384 187.896 371.961C186.703 371.672 185.492 371.464 184.271 371.338C183.544 370.335 182.751 369.381 181.897 368.483C183.754 366.757 185.499 365.809 186.686 365.806L186.685 365.805ZM175.287 365.828C176.467 365.828 178.22 366.771 180.082 368.488C179.281 369.328 178.483 370.281 177.725 371.337C176.501 371.462 175.288 371.671 174.093 371.965C173.968 371.417 173.869 370.865 173.797 370.308C173.529 368.129 173.86 366.435 174.63 365.983C174.852 365.878 175.097 365.835 175.287 365.829V365.828ZM180.982 369.386C181.513 369.932 182.044 370.544 182.569 371.211C182.056 371.188 181.531 371.171 181 371.171C180.463 371.171 179.932 371.183 179.413 371.211C179.927 370.544 180.457 369.932 180.982 369.385V369.386ZM181 372.45C181.863 372.45 182.723 372.49 183.569 372.558C184.043 373.237 184.505 373.962 184.949 374.728C185.383 375.475 185.777 376.233 186.137 376.999C185.777 377.763 185.383 378.527 184.955 379.274C184.512 380.044 184.053 380.776 183.578 381.455C181.866 381.605 180.144 381.607 178.431 381.461C177.941 380.757 177.481 380.033 177.051 379.291C176.617 378.545 176.222 377.786 175.863 377.021C176.224 376.244 176.618 375.484 177.045 374.741C177.488 373.971 177.947 373.241 178.422 372.562C179.279 372.486 180.139 372.448 181 372.448V372.45ZM176.759 372.746C176.479 373.186 176.199 373.636 175.938 374.1C175.675 374.555 175.43 375.012 175.197 375.469C174.888 374.704 174.625 373.941 174.408 373.198C175.155 373.023 175.942 372.868 176.759 372.747V372.746ZM185.229 372.746C186.04 372.866 186.822 373.015 187.569 373.198C187.359 373.935 187.097 374.693 186.8 375.453C186.323 374.524 185.8 373.621 185.23 372.746H185.229ZM188.803 373.534C189.367 373.709 189.904 373.904 190.407 374.115C192.427 374.978 193.734 376.107 193.734 377.003C193.728 377.899 192.422 379.033 190.401 379.891C189.911 380.101 189.374 380.29 188.82 380.466C188.47 379.28 188.041 378.119 187.537 376.989C188.062 375.803 188.482 374.644 188.803 373.531V373.534ZM173.175 373.538C173.5 374.658 173.928 375.822 174.458 377.015C173.958 378.138 173.535 379.293 173.191 380.473C172.627 380.298 172.09 380.102 171.593 379.89C169.572 379.03 168.266 377.899 168.266 377.003C168.266 376.107 169.572 374.971 171.593 374.115C172.083 373.905 172.62 373.716 173.175 373.538V373.538ZM186.8 378.532C187.109 379.298 187.371 380.062 187.588 380.804C186.841 380.988 186.053 381.143 185.236 381.259C185.805 380.378 186.327 379.468 186.801 378.532H186.8ZM175.197 378.555C175.43 379.012 175.675 379.469 175.944 379.926C176.212 380.381 176.486 380.827 176.766 381.259C175.98 381.146 175.199 380.995 174.426 380.809C174.636 380.074 174.899 379.313 175.196 378.554L175.197 378.555ZM187.907 382.04C188.037 382.615 188.14 383.169 188.203 383.7C188.471 385.879 188.14 387.573 187.37 388.026C187.198 388.131 186.976 388.175 186.713 388.175C185.532 388.175 183.78 387.234 181.918 385.515C182.718 384.675 183.516 383.723 184.275 382.669C185.566 382.531 186.788 382.319 187.907 382.039V382.04ZM174.105 382.052C175.225 382.325 176.445 382.536 177.73 382.672C178.5 383.728 179.299 384.687 180.104 385.526C178.243 387.256 176.497 388.203 175.309 388.203C175.085 388.205 174.863 388.152 174.664 388.049C173.887 387.606 173.55 385.91 173.812 383.729C173.875 383.193 173.978 382.628 174.104 382.052H174.105ZM179.425 382.798C179.938 382.822 180.463 382.838 180.994 382.838C181.531 382.838 182.062 382.826 182.581 382.798C182.067 383.466 181.537 384.076 181.012 384.624C180.481 384.076 179.95 383.466 179.425 382.798Z" fill="#673AB6"/>
<path d="M897.852 329.981H893.264V321H897.852C900.328 321 902.342 323.014 902.342 325.49C902.342 327.966 900.328 329.981 897.852 329.981ZM894.735 328.51H897.852C899.517 328.51 900.871 327.155 900.871 325.491C900.871 323.827 899.516 322.472 897.852 322.472H894.735V328.51ZM894.735 329.981H890.148C887.672 329.981 885.658 327.967 885.658 325.491C885.658 323.015 887.672 321 890.148 321H894.736V329.981H894.735ZM890.148 322.471C888.483 322.471 887.129 323.826 887.129 325.49C887.129 327.154 888.483 328.51 890.148 328.51H893.265V322.471H890.148ZM894.735 337.49H890.148C887.672 337.49 885.658 335.476 885.658 333C885.658 330.524 887.672 328.51 890.148 328.51H894.736V337.49H894.735ZM890.148 329.981C888.483 329.981 887.129 331.336 887.129 333C887.129 334.664 888.484 336.019 890.148 336.019H893.265V329.981H890.148ZM890.172 345C887.683 345 885.657 342.986 885.657 340.51C885.657 338.034 887.671 336.02 890.147 336.02H894.735V340.461C894.735 342.964 892.688 345 890.172 345ZM890.148 337.49C889.348 337.491 888.581 337.809 888.015 338.375C887.449 338.941 887.13 339.709 887.129 340.509C887.129 342.174 888.494 343.528 890.173 343.528C891.878 343.528 893.266 342.152 893.266 340.46V337.49H890.148ZM897.852 337.49H897.754C895.278 337.49 893.264 335.476 893.264 333C893.264 330.524 895.278 328.51 897.754 328.51H897.852C900.328 328.51 902.342 330.524 902.342 333C902.342 335.476 900.328 337.49 897.852 337.49ZM897.755 329.981C896.09 329.981 894.736 331.336 894.736 333C894.736 334.664 896.091 336.019 897.755 336.019H897.853C899.518 336.019 900.872 334.664 900.872 333C900.872 331.336 899.517 329.981 897.853 329.981H897.755Z" fill="#673AB6"/>
<path d="M473.5 440H494.5L492.59 461.563L483.977 464L475.412 461.562L473.5 440ZM490.59 444.413L477.41 444.41L477.623 447.032L487.748 447.034L487.493 449.75H480.853L481.093 452.323H487.275L486.909 455.846L483.999 456.65L481.043 455.84L480.855 453.73H478.245L478.535 457.585L484 459.288L489.373 457.758L490.59 444.414V444.413Z" fill="black"/>
<g clip-path="url(#clip7_701_34)">
<path d="M435.931 455.645H440.069L437.999 450.737L435.931 455.645ZM437.999 443L426.68 446.982L428.406 461.753L438 467L447.596 461.758L449.32 446.984L437.999 443.001V443ZM445.063 461.31H442.425L441.003 457.807H434.996L433.574 461.311H430.934L438 445.65L445.063 461.31Z" fill="black"/>
</g>
</g>
<defs>
<clipPath id="clip0_701_34">
<rect width="1033" height="500" fill="white"/>
</clipPath>
<clipPath id="clip1_701_34">
<rect width="24" height="24" fill="white" transform="translate(169 106)"/>
</clipPath>
<clipPath id="clip2_701_34">
<rect width="24" height="24" fill="white" transform="translate(966 231)"/>
</clipPath>
<clipPath id="clip3_701_34">
<rect width="24" height="24" fill="white" transform="translate(924 181)"/>
</clipPath>
<clipPath id="clip4_701_34">
<rect width="24" height="24" fill="white" transform="translate(124 141)"/>
</clipPath>
<clipPath id="clip5_701_34">
<rect width="24" height="24" fill="white" transform="translate(924 280)"/>
</clipPath>
<clipPath id="clip6_701_34">
<rect width="24" height="24" fill="white" transform="translate(843 365)"/>
</clipPath>
<clipPath id="clip7_701_34">
<rect width="24" height="24" fill="white" transform="translate(426 443)"/>
</clipPath>
</defs>
</svg>
